<svg width="51" height="73" viewBox="0 0 51 73" fill="none" xmlns="http://www.w3.org/2000/svg">
<path d="M25.4989 0C11.4386 0 0 11.3655 0 25.3343C0 38.7803 23.1356 70.1952 24.1207 71.5255L25.04 72.7685C25.1476 72.9146 25.3188 73 25.4989 73C25.6818 73 25.8519 72.9146 25.9605 72.7685L26.8793 71.5255C27.865 70.1952 51 38.7803 51 25.3343C51 11.3655 39.5595 0 25.4989 0ZM25.4989 16.2596C30.5367 16.2596 34.6333 20.3295 34.6333 25.3343C34.6333 30.3364 30.5365 34.4089 25.4989 34.4089C20.464 34.4089 16.3645 30.3364 16.3645 25.3343C16.3645 20.3295 20.4638 16.2596 25.4989 16.2596Z" fill="white"/>
</svg>
