<svg width="327" height="582" viewBox="0 0 327 582" fill="none" xmlns="http://www.w3.org/2000/svg">
<path d="M326.534 541.01V40.8488C326.534 18.542 305.521 0.45874 279.599 0.45874L47.3814 0.45874C21.4603 0.45874 0.447144 18.542 0.447144 40.8488V541.01C0.447144 563.317 21.4603 581.4 47.3814 581.4H279.599C305.521 581.4 326.534 563.317 326.534 541.01Z" fill="#BF4242"/>
<path d="M326.534 164.271V541.01C326.534 563.246 305.438 581.4 279.6 581.4H47.5451C21.7067 581.4 0.61084 563.246 0.61084 541.01V407.315L326.697 164.271H326.534Z" fill="#C53839"/>
<path d="M219.583 562.824H107.562C106.09 562.824 104.945 561.839 104.945 560.572C104.945 559.305 106.09 558.32 107.562 558.32H219.583C221.054 558.32 222.199 559.305 222.199 560.572C222.199 561.839 221.054 562.824 219.583 562.824Z" fill="white"/>
<path d="M73.0819 541.721C84.1276 541.721 92.1395 532.816 90.977 521.832C89.8145 510.848 79.9178 501.943 68.8721 501.943C57.8264 501.943 49.8145 510.848 50.977 521.832C52.1395 532.816 62.0362 541.721 73.0819 541.721Z" fill="#3B3B3A"/>
<path d="M257.473 537.307C268.518 537.307 277.047 528.363 276.522 517.33C275.997 506.297 266.617 497.353 255.572 497.353C244.526 497.353 235.997 506.297 236.522 517.33C237.047 528.363 246.427 537.307 257.473 537.307Z" fill="#3B3B3A"/>
<path d="M252.126 30.4346H248.855V34.0936H252.126V30.4346Z" fill="white"/>
<path d="M256.868 28.3237H253.598V33.953H256.868V28.3237Z" fill="white"/>
<path d="M261.775 26.072H258.504V33.953H261.775V26.072Z" fill="white"/>
<path d="M282.053 29.168C281.726 29.168 281.562 29.1679 281.398 28.8865C277.801 25.7904 272.077 25.7904 268.479 28.8865C268.152 29.1679 267.498 29.1679 267.171 28.8865C266.844 28.605 266.844 28.0421 267.171 27.7606C271.423 24.1016 278.455 24.1016 282.87 27.7606C283.197 28.0421 283.197 28.605 282.87 28.8865C282.707 29.0272 282.38 29.168 282.216 29.168H282.053Z" fill="white"/>
<path d="M280.09 31.1384C279.763 31.1384 279.6 31.1384 279.436 30.857C278.291 29.8718 276.656 29.1682 274.857 29.1682C273.058 29.1682 271.586 29.7311 270.278 30.857C269.951 31.1384 269.297 31.1384 268.97 30.857C268.643 30.5755 268.643 30.0126 268.97 29.7311C270.605 28.3238 272.731 27.6201 274.857 27.6201C276.983 27.6201 279.273 28.3238 280.744 29.7311C281.071 30.0126 281.071 30.5755 280.744 30.857C280.417 31.1384 280.254 31.1384 280.09 31.1384Z" fill="white"/>
<path d="M277.964 32.968C277.637 32.968 277.474 32.968 277.31 32.6865C276.002 31.5606 273.712 31.5606 272.404 32.6865C272.077 32.968 271.423 32.968 271.096 32.6865C270.769 32.405 270.769 31.8421 271.096 31.5606C272.077 30.7162 273.549 30.1533 274.857 30.1533C276.165 30.1533 277.637 30.5755 278.618 31.5606C278.946 31.8421 278.946 32.405 278.618 32.6865C278.455 32.8272 278.128 32.968 277.964 32.968Z" fill="white"/>
<path d="M276.329 33.9529C276.329 34.6565 275.675 35.2195 274.857 35.2195C274.039 35.2195 273.385 34.6565 273.385 33.9529C273.385 33.2492 274.039 32.6863 274.857 32.6863C275.675 32.6863 276.329 33.2492 276.329 33.9529Z" fill="white"/>
<path d="M300.859 28.1829H300.041V27.62C300.041 27.3385 299.714 27.1978 299.551 27.1978H288.431C288.104 27.1978 287.94 27.4792 287.94 27.62V32.5456C287.94 32.827 288.267 32.9678 288.431 32.9678H299.551C299.878 32.9678 300.041 32.6863 300.041 32.5456V31.7012H300.859C301.023 31.7012 301.35 31.5604 301.35 31.279V28.4643C301.35 28.3236 301.186 28.0421 300.859 28.0421V28.1829ZM298.897 32.1234H295.463L297.098 28.0421H298.897V32.1234Z" fill="white"/>
<path d="M161.205 47.5596C154.66 47.5596 149.503 52.9963 149.503 59.1828V77.5551C149.503 79.2424 150.891 80.5547 152.676 80.5547H170.329C172.115 80.5547 173.503 79.2424 173.503 77.5551V58.9954C173.503 52.6213 167.949 47.3721 161.007 47.5596H161.205ZM171.916 65.5569H151.288V58.9954C151.288 53.5587 155.85 49.2468 161.602 49.2468C167.354 49.2468 166.957 50.3716 168.941 52.0589C170.726 53.7461 171.916 56.1833 171.916 58.9954V65.5569Z" fill="white"/>
<path d="M121.44 143.935C119.397 143.935 117.656 143.378 116.218 142.266C114.78 141.145 113.681 139.521 112.921 137.396C112.162 135.262 111.782 132.684 111.782 129.664C111.782 126.661 112.162 124.097 112.921 121.972C113.69 119.838 114.793 118.21 116.231 117.089C117.678 115.958 119.415 115.393 121.44 115.393C123.466 115.393 125.198 115.958 126.636 117.089C128.083 118.21 129.186 119.838 129.946 121.972C130.715 124.097 131.099 126.661 131.099 129.664C131.099 132.684 130.719 135.262 129.959 137.396C129.2 139.521 128.101 141.145 126.663 142.266C125.225 143.378 123.484 143.935 121.44 143.935ZM121.44 140.95C123.466 140.95 125.04 139.973 126.161 138.02C127.283 136.067 127.843 133.281 127.843 129.664C127.843 127.258 127.586 125.21 127.07 123.519C126.564 121.828 125.831 120.539 124.872 119.653C123.923 118.766 122.779 118.323 121.44 118.323C119.433 118.323 117.864 119.313 116.733 121.294C115.603 123.265 115.038 126.055 115.038 129.664C115.038 132.069 115.291 134.113 115.797 135.795C116.304 137.477 117.032 138.757 117.981 139.634C118.94 140.512 120.093 140.95 121.44 140.95ZM145.098 115.393C146.238 115.402 147.377 115.619 148.517 116.044C149.656 116.469 150.696 117.175 151.637 118.16C152.577 119.137 153.333 120.471 153.902 122.162C154.472 123.853 154.757 125.974 154.757 128.524C154.757 130.993 154.522 133.186 154.052 135.103C153.59 137.012 152.921 138.621 152.044 139.933C151.176 141.244 150.118 142.239 148.87 142.917C147.631 143.595 146.229 143.935 144.664 143.935C143.109 143.935 141.721 143.627 140.5 143.012C139.288 142.388 138.293 141.524 137.515 140.421C136.747 139.309 136.254 138.02 136.037 136.555H139.347C139.645 137.83 140.237 138.884 141.124 139.716C142.019 140.539 143.199 140.95 144.664 140.95C146.808 140.95 148.499 140.014 149.738 138.142C150.986 136.27 151.61 133.625 151.61 130.206H151.393C150.886 130.966 150.285 131.622 149.589 132.173C148.892 132.725 148.119 133.15 147.269 133.449C146.419 133.747 145.514 133.896 144.556 133.896C142.964 133.896 141.504 133.503 140.174 132.716C138.854 131.92 137.796 130.83 137 129.447C136.213 128.054 135.82 126.462 135.82 124.672C135.82 122.972 136.2 121.416 136.959 120.005C137.728 118.585 138.804 117.455 140.188 116.614C141.58 115.773 143.217 115.366 145.098 115.393ZM145.098 118.377C143.959 118.377 142.932 118.662 142.019 119.232C141.115 119.793 140.396 120.552 139.862 121.511C139.338 122.461 139.075 123.514 139.075 124.672C139.075 125.829 139.329 126.883 139.835 127.832C140.351 128.773 141.051 129.524 141.938 130.084C142.833 130.636 143.85 130.912 144.99 130.912C145.849 130.912 146.649 130.744 147.391 130.41C148.132 130.066 148.779 129.6 149.331 129.013C149.891 128.416 150.33 127.742 150.647 126.991C150.963 126.232 151.121 125.44 151.121 124.617C151.121 123.532 150.859 122.515 150.335 121.565C149.819 120.616 149.105 119.847 148.191 119.259C147.287 118.671 146.256 118.377 145.098 118.377ZM162.479 140.001C161.81 140.001 161.235 139.761 160.756 139.282C160.277 138.802 160.037 138.228 160.037 137.559C160.037 136.89 160.277 136.315 160.756 135.836C161.235 135.357 161.81 135.117 162.479 135.117C163.148 135.117 163.722 135.357 164.202 135.836C164.681 136.315 164.921 136.89 164.921 137.559C164.921 138.002 164.808 138.409 164.582 138.78C164.365 139.15 164.071 139.449 163.7 139.675C163.338 139.892 162.931 140.001 162.479 140.001ZM162.479 125.947C161.81 125.947 161.235 125.707 160.756 125.228C160.277 124.749 160.037 124.174 160.037 123.505C160.037 122.836 160.277 122.262 160.756 121.782C161.235 121.303 161.81 121.063 162.479 121.063C163.148 121.063 163.722 121.303 164.202 121.782C164.681 122.262 164.921 122.836 164.921 123.505C164.921 123.948 164.808 124.355 164.582 124.726C164.365 125.097 164.071 125.395 163.7 125.621C163.338 125.838 162.931 125.947 162.479 125.947ZM179.673 143.935C177.629 143.935 175.888 143.378 174.45 142.266C173.012 141.145 171.914 139.521 171.154 137.396C170.394 135.262 170.015 132.684 170.015 129.664C170.015 126.661 170.394 124.097 171.154 121.972C171.923 119.838 173.026 118.21 174.464 117.089C175.911 115.958 177.647 115.393 179.673 115.393C181.699 115.393 183.431 115.958 184.869 117.089C186.316 118.21 187.419 119.838 188.179 121.972C188.947 124.097 189.332 126.661 189.332 129.664C189.332 132.684 188.952 135.262 188.192 137.396C187.432 139.521 186.334 141.145 184.896 142.266C183.458 143.378 181.717 143.935 179.673 143.935ZM179.673 140.95C181.699 140.95 183.272 139.973 184.394 138.02C185.515 136.067 186.076 133.281 186.076 129.664C186.076 127.258 185.818 125.21 185.303 123.519C184.796 121.828 184.064 120.539 183.105 119.653C182.156 118.766 181.011 118.323 179.673 118.323C177.665 118.323 176.096 119.313 174.966 121.294C173.835 123.265 173.27 126.055 173.27 129.664C173.27 132.069 173.523 134.113 174.03 135.795C174.536 137.477 175.264 138.757 176.214 139.634C177.173 140.512 178.326 140.95 179.673 140.95ZM203.548 143.935C201.504 143.935 199.763 143.378 198.325 142.266C196.887 141.145 195.789 139.521 195.029 137.396C194.269 135.262 193.89 132.684 193.89 129.664C193.89 126.661 194.269 124.097 195.029 121.972C195.798 119.838 196.901 118.21 198.339 117.089C199.786 115.958 201.522 115.393 203.548 115.393C205.574 115.393 207.306 115.958 208.744 117.089C210.191 118.21 211.294 119.838 212.054 121.972C212.822 124.097 213.207 126.661 213.207 129.664C213.207 132.684 212.827 135.262 212.067 137.396C211.307 139.521 210.209 141.145 208.771 142.266C207.333 143.378 205.592 143.935 203.548 143.935ZM203.548 140.95C205.574 140.95 207.147 139.973 208.269 138.02C209.39 136.067 209.951 133.281 209.951 129.664C209.951 127.258 209.693 125.21 209.178 123.519C208.671 121.828 207.939 120.539 206.98 119.653C206.031 118.766 204.886 118.323 203.548 118.323C201.54 118.323 199.971 119.313 198.841 121.294C197.71 123.265 197.145 126.055 197.145 129.664C197.145 132.069 197.398 134.113 197.905 135.795C198.411 137.477 199.139 138.757 200.089 139.634C201.048 140.512 202.201 140.95 203.548 140.95Z" fill="white"/>
<path d="M125.48 176.482H126.647L129.391 183.183H129.485L132.229 176.482H133.396V184.555H132.481V178.421H132.402L129.879 184.555H128.997L126.474 178.421H126.395V184.555H125.48V176.482ZM137.689 184.681C137.143 184.681 136.663 184.551 136.25 184.291C135.84 184.03 135.52 183.666 135.289 183.199C135.06 182.731 134.946 182.184 134.946 181.559C134.946 180.928 135.06 180.378 135.289 179.907C135.52 179.437 135.84 179.072 136.25 178.812C136.663 178.551 137.143 178.421 137.689 178.421C138.236 178.421 138.714 178.551 139.124 178.812C139.536 179.072 139.857 179.437 140.086 179.907C140.317 180.378 140.433 180.928 140.433 181.559C140.433 182.184 140.317 182.731 140.086 183.199C139.857 183.666 139.536 184.03 139.124 184.291C138.714 184.551 138.236 184.681 137.689 184.681ZM137.689 183.845C138.104 183.845 138.446 183.739 138.714 183.526C138.982 183.313 139.18 183.033 139.309 182.686C139.438 182.339 139.502 181.964 139.502 181.559C139.502 181.154 139.438 180.777 139.309 180.428C139.18 180.078 138.982 179.796 138.714 179.58C138.446 179.365 138.104 179.257 137.689 179.257C137.274 179.257 136.932 179.365 136.664 179.58C136.396 179.796 136.198 180.078 136.069 180.428C135.94 180.777 135.876 181.154 135.876 181.559C135.876 181.964 135.94 182.339 136.069 182.686C136.198 183.033 136.396 183.313 136.664 183.526C136.932 183.739 137.274 183.845 137.689 183.845ZM142.783 180.912V184.555H141.853V178.5H142.751V179.446H142.83C142.972 179.139 143.188 178.892 143.477 178.705C143.766 178.516 144.139 178.421 144.596 178.421C145.006 178.421 145.365 178.505 145.672 178.674C145.98 178.839 146.219 179.091 146.39 179.43C146.56 179.767 146.646 180.192 146.646 180.708V184.555H145.716V180.771C145.716 180.295 145.592 179.924 145.345 179.659C145.098 179.391 144.759 179.257 144.328 179.257C144.031 179.257 143.766 179.321 143.532 179.45C143.301 179.579 143.118 179.767 142.984 180.014C142.85 180.261 142.783 180.56 142.783 180.912ZM150.632 184.681C150.127 184.681 149.682 184.553 149.296 184.298C148.909 184.041 148.607 183.678 148.389 183.211C148.171 182.74 148.062 182.184 148.062 181.543C148.062 180.907 148.171 180.355 148.389 179.888C148.607 179.42 148.911 179.059 149.3 178.804C149.688 178.549 150.138 178.421 150.648 178.421C151.042 178.421 151.353 178.487 151.582 178.618C151.813 178.747 151.989 178.894 152.11 179.06C152.234 179.223 152.329 179.357 152.398 179.462H152.477V176.482H153.407V184.555H152.508V183.624H152.398C152.329 183.735 152.232 183.874 152.106 184.042C151.98 184.208 151.8 184.356 151.566 184.488C151.332 184.616 151.021 184.681 150.632 184.681ZM150.758 183.845C151.131 183.845 151.447 183.748 151.704 183.553C151.962 183.356 152.157 183.084 152.291 182.738C152.425 182.388 152.492 181.985 152.492 181.527C152.492 181.075 152.427 180.68 152.295 180.341C152.164 179.999 151.969 179.734 151.712 179.545C151.454 179.353 151.136 179.257 150.758 179.257C150.364 179.257 150.035 179.358 149.773 179.56C149.512 179.76 149.317 180.032 149.185 180.376C149.056 180.718 148.992 181.102 148.992 181.527C148.992 181.958 149.058 182.35 149.189 182.702C149.323 183.052 149.52 183.33 149.78 183.538C150.043 183.743 150.369 183.845 150.758 183.845ZM157.021 184.697C156.638 184.697 156.29 184.624 155.977 184.48C155.664 184.333 155.416 184.121 155.232 183.845C155.048 183.567 154.956 183.23 154.956 182.836C154.956 182.489 155.024 182.208 155.161 181.993C155.298 181.774 155.48 181.604 155.709 181.48C155.937 181.357 156.19 181.265 156.466 181.204C156.744 181.141 157.024 181.091 157.305 181.054C157.673 181.007 157.971 180.972 158.2 180.948C158.431 180.922 158.599 180.878 158.705 180.818C158.812 180.757 158.866 180.652 158.866 180.503V180.471C158.866 180.082 158.76 179.78 158.547 179.564C158.337 179.349 158.017 179.241 157.589 179.241C157.145 179.241 156.797 179.338 156.545 179.533C156.292 179.727 156.115 179.935 156.012 180.156L155.129 179.84C155.287 179.472 155.497 179.186 155.76 178.981C156.026 178.773 156.315 178.629 156.627 178.547C156.943 178.463 157.253 178.421 157.558 178.421C157.752 178.421 157.975 178.445 158.228 178.492C158.483 178.537 158.728 178.63 158.965 178.772C159.204 178.914 159.402 179.128 159.56 179.415C159.718 179.701 159.796 180.085 159.796 180.566V184.555H158.866V183.735H158.819C158.756 183.866 158.651 184.007 158.504 184.157C158.356 184.306 158.161 184.434 157.916 184.539C157.672 184.644 157.374 184.697 157.021 184.697ZM157.163 183.861C157.531 183.861 157.841 183.789 158.094 183.644C158.349 183.5 158.54 183.313 158.669 183.084C158.801 182.856 158.866 182.615 158.866 182.363V181.512C158.827 181.559 158.74 181.602 158.606 181.642C158.475 181.679 158.322 181.711 158.149 181.74C157.978 181.767 157.811 181.79 157.648 181.811C157.488 181.83 157.358 181.845 157.258 181.859C157.016 181.89 156.79 181.941 156.58 182.012C156.372 182.081 156.204 182.184 156.075 182.324C155.949 182.46 155.886 182.647 155.886 182.883C155.886 183.207 156.006 183.451 156.245 183.617C156.487 183.779 156.793 183.861 157.163 183.861ZM161.877 186.825C161.719 186.825 161.578 186.812 161.455 186.786C161.331 186.762 161.246 186.738 161.199 186.715L161.435 185.895C161.661 185.953 161.861 185.974 162.034 185.958C162.208 185.942 162.362 185.865 162.496 185.725C162.632 185.589 162.757 185.367 162.87 185.059L163.044 184.586L160.805 178.5H161.814L163.485 183.325H163.548L165.219 178.5H166.228L163.658 185.438C163.543 185.75 163.4 186.009 163.229 186.214C163.058 186.422 162.86 186.575 162.634 186.675C162.41 186.775 162.158 186.825 161.877 186.825ZM173.196 184.665C172.602 184.665 172.096 184.503 171.678 184.18C171.26 183.854 170.941 183.383 170.72 182.765C170.499 182.145 170.389 181.396 170.389 180.518C170.389 179.646 170.499 178.901 170.72 178.283C170.943 177.663 171.264 177.19 171.682 176.864C172.102 176.536 172.607 176.372 173.196 176.372C173.784 176.372 174.287 176.536 174.705 176.864C175.126 177.19 175.446 177.663 175.667 178.283C175.89 178.901 176.002 179.646 176.002 180.518C176.002 181.396 175.892 182.145 175.671 182.765C175.45 183.383 175.131 183.854 174.713 184.18C174.295 184.503 173.789 184.665 173.196 184.665ZM173.196 183.798C173.784 183.798 174.241 183.514 174.567 182.946C174.893 182.379 175.056 181.569 175.056 180.518C175.056 179.819 174.981 179.224 174.831 178.733C174.684 178.241 174.471 177.867 174.193 177.609C173.917 177.352 173.584 177.223 173.196 177.223C172.612 177.223 172.156 177.511 171.828 178.086C171.499 178.659 171.335 179.47 171.335 180.518C171.335 181.217 171.409 181.811 171.556 182.3C171.703 182.789 171.914 183.161 172.19 183.416C172.469 183.67 172.804 183.798 173.196 183.798ZM180.338 176.482V184.555H179.36V177.507H179.313L177.342 178.815V177.822L179.36 176.482H180.338ZM189.014 176.482H189.991V182.253C189.991 182.768 189.897 183.205 189.708 183.565C189.518 183.925 189.252 184.199 188.907 184.385C188.563 184.572 188.157 184.665 187.689 184.665C187.248 184.665 186.855 184.585 186.511 184.425C186.167 184.262 185.896 184.03 185.699 183.731C185.502 183.431 185.403 183.075 185.403 182.663H186.365C186.365 182.891 186.421 183.091 186.534 183.262C186.65 183.43 186.808 183.561 187.007 183.656C187.207 183.751 187.434 183.798 187.689 183.798C187.971 183.798 188.21 183.739 188.407 183.62C188.604 183.502 188.754 183.329 188.856 183.1C188.961 182.869 189.014 182.586 189.014 182.253V176.482ZM193.606 184.697C193.222 184.697 192.874 184.624 192.561 184.48C192.249 184.333 192 184.121 191.816 183.845C191.632 183.567 191.54 183.23 191.54 182.836C191.54 182.489 191.609 182.208 191.745 181.993C191.882 181.774 192.065 181.604 192.293 181.48C192.522 181.357 192.774 181.265 193.05 181.204C193.329 181.141 193.609 181.091 193.89 181.054C194.258 181.007 194.556 180.972 194.785 180.948C195.016 180.922 195.184 180.878 195.289 180.818C195.397 180.757 195.451 180.652 195.451 180.503V180.471C195.451 180.082 195.344 179.78 195.131 179.564C194.921 179.349 194.602 179.241 194.174 179.241C193.729 179.241 193.381 179.338 193.129 179.533C192.877 179.727 192.699 179.935 192.597 180.156L191.714 179.84C191.872 179.472 192.082 179.186 192.345 178.981C192.61 178.773 192.899 178.629 193.212 178.547C193.527 178.463 193.837 178.421 194.142 178.421C194.336 178.421 194.56 178.445 194.812 178.492C195.067 178.537 195.313 178.63 195.549 178.772C195.788 178.914 195.987 179.128 196.144 179.415C196.302 179.701 196.381 180.085 196.381 180.566V184.555H195.451V183.735H195.403C195.34 183.866 195.235 184.007 195.088 184.157C194.941 184.306 194.745 184.434 194.501 184.539C194.256 184.644 193.958 184.697 193.606 184.697ZM193.748 183.861C194.116 183.861 194.426 183.789 194.678 183.644C194.933 183.5 195.125 183.313 195.254 183.084C195.385 182.856 195.451 182.615 195.451 182.363V181.512C195.411 181.559 195.325 181.602 195.191 181.642C195.059 181.679 194.907 181.711 194.733 181.74C194.562 181.767 194.396 181.79 194.233 181.811C194.072 181.83 193.942 181.845 193.842 181.859C193.601 181.89 193.375 181.941 193.164 182.012C192.957 182.081 192.789 182.184 192.66 182.324C192.534 182.46 192.471 182.647 192.471 182.883C192.471 183.207 192.59 183.451 192.829 183.617C193.071 183.779 193.377 183.861 193.748 183.861ZM199.009 180.912V184.555H198.079V178.5H198.978V179.446H199.056C199.198 179.139 199.414 178.892 199.703 178.705C199.992 178.516 200.365 178.421 200.822 178.421C201.232 178.421 201.591 178.505 201.898 178.674C202.206 178.839 202.445 179.091 202.616 179.43C202.787 179.767 202.872 180.192 202.872 180.708V184.555H201.942V180.771C201.942 180.295 201.818 179.924 201.571 179.659C201.324 179.391 200.985 179.257 200.554 179.257C200.257 179.257 199.992 179.321 199.758 179.45C199.527 179.579 199.344 179.767 199.21 180.014C199.076 180.261 199.009 180.56 199.009 180.912ZM208.388 182.079V178.5H209.318V184.555H208.388V183.53H208.324C208.183 183.837 207.962 184.099 207.662 184.314C207.363 184.527 206.984 184.634 206.527 184.634C206.149 184.634 205.812 184.551 205.518 184.385C205.224 184.217 204.992 183.965 204.824 183.628C204.656 183.289 204.572 182.862 204.572 182.347V178.5H205.502V182.284C205.502 182.726 205.626 183.078 205.873 183.341C206.122 183.603 206.44 183.735 206.827 183.735C207.058 183.735 207.293 183.676 207.532 183.557C207.774 183.439 207.976 183.258 208.139 183.013C208.305 182.769 208.388 182.458 208.388 182.079ZM212.803 184.697C212.42 184.697 212.071 184.624 211.759 184.48C211.446 184.333 211.198 184.121 211.014 183.845C210.83 183.567 210.738 183.23 210.738 182.836C210.738 182.489 210.806 182.208 210.943 181.993C211.079 181.774 211.262 181.604 211.491 181.48C211.719 181.357 211.972 181.265 212.248 181.204C212.526 181.141 212.806 181.091 213.087 181.054C213.455 181.007 213.753 180.972 213.982 180.948C214.213 180.922 214.381 180.878 214.486 180.818C214.594 180.757 214.648 180.652 214.648 180.503V180.471C214.648 180.082 214.542 179.78 214.329 179.564C214.119 179.349 213.799 179.241 213.371 179.241C212.927 179.241 212.579 179.338 212.326 179.533C212.074 179.727 211.897 179.935 211.794 180.156L210.911 179.84C211.069 179.472 211.279 179.186 211.542 178.981C211.807 178.773 212.096 178.629 212.409 178.547C212.724 178.463 213.035 178.421 213.339 178.421C213.534 178.421 213.757 178.445 214.009 178.492C214.264 178.537 214.51 178.63 214.747 178.772C214.986 178.914 215.184 179.128 215.342 179.415C215.499 179.701 215.578 180.085 215.578 180.566V184.555H214.648V183.735H214.601C214.538 183.866 214.433 184.007 214.285 184.157C214.138 184.306 213.942 184.434 213.698 184.539C213.454 184.644 213.155 184.697 212.803 184.697ZM212.945 183.861C213.313 183.861 213.623 183.789 213.875 183.644C214.13 183.5 214.322 183.313 214.451 183.084C214.582 182.856 214.648 182.615 214.648 182.363V181.512C214.609 181.559 214.522 181.602 214.388 181.642C214.257 181.679 214.104 181.711 213.931 181.74C213.76 181.767 213.593 181.79 213.43 181.811C213.27 181.83 213.14 181.845 213.04 181.859C212.798 181.89 212.572 181.941 212.362 182.012C212.154 182.081 211.986 182.184 211.857 182.324C211.731 182.46 211.668 182.647 211.668 182.883C211.668 183.207 211.788 183.451 212.027 183.617C212.269 183.779 212.575 183.861 212.945 183.861ZM217.276 184.555V178.5H218.175V179.415H218.238C218.348 179.115 218.548 178.872 218.837 178.685C219.126 178.499 219.452 178.406 219.815 178.406C219.883 178.406 219.968 178.407 220.071 178.409C220.173 178.412 220.251 178.416 220.303 178.421V179.367C220.272 179.359 220.2 179.348 220.087 179.332C219.976 179.313 219.859 179.304 219.736 179.304C219.442 179.304 219.179 179.366 218.948 179.49C218.719 179.61 218.538 179.779 218.404 179.994C218.272 180.207 218.206 180.45 218.206 180.723V184.555H217.276ZM222.19 186.825C222.032 186.825 221.891 186.812 221.768 186.786C221.644 186.762 221.559 186.738 221.512 186.715L221.748 185.895C221.974 185.953 222.174 185.974 222.347 185.958C222.521 185.942 222.674 185.865 222.808 185.725C222.945 185.589 223.07 185.367 223.183 185.059L223.356 184.586L221.117 178.5H222.127L223.798 183.325H223.861L225.532 178.5H226.541L223.971 185.438C223.856 185.75 223.712 186.009 223.542 186.214C223.371 186.422 223.172 186.575 222.946 186.675C222.723 186.775 222.471 186.825 222.19 186.825Z" fill="white"/>
</svg>
