<svg width="42" height="39" viewBox="0 0 42 39" fill="none" xmlns="http://www.w3.org/2000/svg">
<path d="M3 17C3 18.8385 3.36212 20.659 4.06569 22.3576C4.76925 24.0561 5.80048 25.5995 7.1005 26.8995C8.40053 28.1995 9.94387 29.2307 11.6424 29.9343C13.341 30.6379 15.1615 31 17 31C18.8385 31 20.659 30.6379 22.3576 29.9343C24.0561 29.2307 25.5995 28.1995 26.8995 26.8995C28.1995 25.5995 29.2307 24.0561 29.9343 22.3576C30.6379 20.659 31 18.8385 31 17C31 15.1615 30.6379 13.341 29.9343 11.6424C29.2307 9.94387 28.1995 8.40053 26.8995 7.10051C25.5995 5.80048 24.0561 4.76925 22.3576 4.06569C20.659 3.36212 18.8385 3 17 3C15.1615 3 13.341 3.36212 11.6424 4.06569C9.94387 4.76925 8.40053 5.80048 7.1005 7.10051C5.80048 8.40053 4.76925 9.94387 4.06569 11.6424C3.36212 13.341 3 15.1615 3 17Z" fill="#DBDBDB"/>
<path d="M13 17.1176L16.8571 21L21 11" stroke="#676161" stroke-width="2" stroke-linecap="round" stroke-linejoin="round"/>
</svg>
