<svg width="82" height="84" viewBox="0 0 82 84" fill="none" xmlns="http://www.w3.org/2000/svg">
<ellipse cx="40.7651" cy="42.2122" rx="40.5903" ry="41.4982" fill="white"/>
<path d="M47.4191 56.1695C47.4191 58.3719 49.1435 60.1573 51.2706 60.1573C53.3978 60.1573 55.1222 58.3719 55.1222 56.1695C55.1222 53.9671 53.3978 52.1817 51.2706 52.1817C49.1435 52.1817 47.4191 53.9671 47.4191 56.1695Z" fill="#D9D9D9"/>
<path d="M30.0869 56.1695C30.0869 58.3719 31.8114 60.1573 33.9385 60.1573C36.0657 60.1573 37.7901 58.3719 37.7901 56.1695C37.7901 53.9671 36.0657 52.1817 33.9385 52.1817C31.8114 52.1817 30.0869 53.9671 30.0869 56.1695Z" fill="#D9D9D9"/>
<path d="M51.2706 52.1817C49.1435 52.1817 47.4191 53.9671 47.4191 56.1695C47.4191 58.3719 49.1435 60.1573 51.2706 60.1573C53.3978 60.1573 55.1222 58.3719 55.1222 56.1695C55.1222 53.9671 53.3978 52.1817 51.2706 52.1817ZM51.2706 52.1817H36.4304C35.5425 52.1817 35.0977 52.1817 34.7322 52.0181C34.4097 51.8738 34.1299 51.6416 33.9261 51.3453C33.6976 51.0133 33.6057 50.5692 33.4238 49.6903L28.684 26.7886C28.4979 25.8893 28.4035 25.4401 28.1724 25.1043C27.9686 24.808 27.6889 24.5749 27.3664 24.4306C27.0008 24.267 26.5585 24.267 25.6702 24.267H24.3096M30.0869 30.2487H54.8781C56.268 30.2487 56.9624 30.2487 57.4289 30.5485C57.8375 30.8111 58.1367 31.223 58.2671 31.7023C58.416 32.2495 58.2247 32.9404 57.8395 34.3232L55.173 43.8939C54.9427 44.7207 54.8274 45.1333 54.5938 45.4401C54.3875 45.7108 54.1154 45.9228 53.807 46.053C53.4586 46.2 53.0445 46.2 52.2183 46.2H33.4195M33.9385 60.1573C31.8114 60.1573 30.0869 58.3719 30.0869 56.1695C30.0869 53.9671 31.8114 52.1817 33.9385 52.1817C36.0657 52.1817 37.7901 53.9671 37.7901 56.1695C37.7901 58.3719 36.0657 60.1573 33.9385 60.1573Z" stroke="#787878" stroke-width="4" stroke-linecap="round" stroke-linejoin="round"/>
</svg>
