<svg width="984" height="1003" viewBox="0 0 984 1003" fill="none" xmlns="http://www.w3.org/2000/svg">
<path d="M357.695 0H984V1003H357.695V0Z" fill="#F23C3D"/>
<path d="M398.554 717.788L465.284 750.307L430.974 820.641L364.244 788.122L398.554 717.788Z" fill="#0E60FF"/>
<path d="M368.272 622.838C373.54 595.731 399.786 578.022 426.894 583.285L451.955 588.151C479.063 593.414 496.768 619.655 491.5 646.762L485.354 678.386C480.086 705.493 453.84 723.202 426.732 717.939L401.671 713.073C374.563 707.81 356.858 681.569 362.126 654.462L368.272 622.838Z" fill="#F20E0F"/>
<path d="M41.3359 962.001C53.6753 984.896 79.8639 994.725 79.8639 994.725C79.8639 994.725 86.0464 967.433 73.707 944.538C61.3676 921.643 35.179 911.814 35.179 911.814C35.179 911.814 28.9965 939.106 41.3359 962.001Z" fill="#201F30"/>
<path d="M49.8171 954.469C72.0947 967.879 80.6745 994.514 80.6745 994.514C80.6745 994.514 53.1351 999.408 30.8575 985.998C8.57983 972.589 0 945.954 0 945.954C0 945.954 27.5394 941.06 49.8171 954.469Z" fill="#F47458"/>
<path d="M549.284 289.691H410.287V291.677H549.284V289.691Z" fill="#F36A6B"/>
<path d="M511.557 291.181H509.571V309.557H511.557V291.181Z" fill="#F36A6B"/>
<path d="M450.994 291.181H449.008V309.557H450.994V291.181Z" fill="#F36A6B"/>
<path d="M619.777 385.049H480.78V387.036H619.777V385.049Z" fill="#F36A6B"/>
<path d="M520.493 367.17H518.507V385.547H520.493V367.17Z" fill="#F36A6B"/>
<path d="M581.055 367.17H579.07V385.547H581.055V367.17Z" fill="#F36A6B"/>
<path d="M804.444 429.749H665.447V431.735H804.444V429.749Z" fill="#F36A6B"/>
<path d="M705.16 411.87H703.174V430.246H705.16V411.87Z" fill="#F36A6B"/>
<path d="M765.723 411.87H763.737V430.246H765.723V411.87Z" fill="#F36A6B"/>
<path d="M790.544 890.651H651.547V892.638H790.544V890.651Z" fill="#F36A6B"/>
<path d="M691.261 872.771H689.276V891.148H691.261V872.771Z" fill="#F36A6B"/>
<path d="M751.823 872.771H749.837V891.148H751.823V872.771Z" fill="#F36A6B"/>
<path d="M553.256 571.794H414.259V573.781H553.256V571.794Z" fill="#F36A6B"/>
<path d="M453.973 553.915H451.987V572.291H453.973V553.915Z" fill="#F36A6B"/>
<path d="M514.536 553.915H512.55V572.291H514.536V553.915Z" fill="#F36A6B"/>
<path d="M596.941 811.185H457.944V813.172H596.941V811.185Z" fill="#F36A6B"/>
<path d="M497.658 793.305H495.672V811.682H497.658V793.305Z" fill="#F36A6B"/>
<path d="M558.221 793.305H556.235V811.682H558.221V793.305Z" fill="#F36A6B"/>
<path d="M819.337 738.672H680.34V740.659H819.337V738.672Z" fill="#F36A6B"/>
<path d="M720.053 720.793H718.067V739.169H720.053V720.793Z" fill="#F36A6B"/>
<path d="M780.615 720.793H778.63V739.169H780.615V720.793Z" fill="#F36A6B"/>
<path d="M382.935 959.961L152.159 915.156L152.482 913.496L381.597 957.978L397.254 877.415L187.539 836.7L181.478 813.487L183.115 813.059L188.907 835.241L399.237 876.076L382.935 959.961Z" fill="#201F30"/>
<path d="M174.966 961.816C184.593 963.685 193.916 957.392 195.788 947.759C197.66 938.127 191.372 928.803 181.745 926.933C172.117 925.064 162.794 931.358 160.922 940.99C159.05 950.623 165.338 959.947 174.966 961.816Z" fill="#3F3D56"/>
<path d="M346.803 995.177C356.43 997.047 365.753 990.753 367.625 981.121C369.497 971.488 363.21 962.164 353.582 960.295C343.954 958.426 334.631 964.719 332.759 974.352C330.887 983.984 337.175 993.308 346.803 995.177Z" fill="#3F3D56"/>
<path d="M622.633 657.437C628.593 658.594 634.364 654.698 635.523 648.735C636.682 642.772 632.79 637 626.829 635.843C620.869 634.686 615.098 638.582 613.939 644.545C612.781 650.508 616.673 656.28 622.633 657.437Z" fill="#3F3D56"/>
<path d="M428.924 855.121L169.53 804.761L149.074 610.316L522.397 682.794L428.924 855.121ZM171.081 803.339L428.029 853.224L519.81 684.016L150.995 612.412L171.081 803.339Z" fill="#201F30"/>
<path d="M342.382 801.003L200.784 798.611L171.856 696.924L375.645 700.366L342.382 801.003Z" fill="#00FFC2"/>
<path d="M530.234 667.3L528.712 666.562L547.696 627.375L611.426 639.748L611.103 641.409L548.651 629.285L530.234 667.3Z" fill="#201F30"/>
<path d="M492.927 734.819L156.398 669.483L156.075 671.144L492.605 736.48L492.927 734.819Z" fill="#201F30"/>
<path d="M461.762 792.274L163.218 734.313L162.895 735.974L461.44 793.935L461.762 792.274Z" fill="#201F30"/>
<path d="M336.4 647.546L334.739 647.223L299.391 829.111L301.052 829.433L336.4 647.546Z" fill="#201F30"/>
<path d="M410.742 661.925L363.477 841.495L365.113 841.925L412.378 662.355L410.742 661.925Z" fill="#201F30"/>
<path d="M260.452 632.745L258.774 632.531L235.275 816.72L236.953 816.933L260.452 632.745Z" fill="#201F30"/>
<path d="M591.145 315.485C591.145 315.485 605.659 356.814 596.727 363.172C587.796 369.53 626.871 421.456 626.871 421.456L673.762 408.739L648.084 365.291C648.084 365.291 644.734 321.843 644.734 315.485C644.734 309.127 591.145 315.485 591.145 315.485Z" fill="#FFD6BA"/>
<path d="M591.145 315.485C591.145 315.485 605.659 356.814 596.727 363.172C587.796 369.53 626.871 421.456 626.871 421.456L673.762 408.739L648.084 365.291C648.084 365.291 644.734 321.843 644.734 315.485C644.734 309.127 591.145 315.485 591.145 315.485Z" fill="#FFD6BA"/>
<path d="M566.784 610.084C566.784 610.084 562.547 663.069 566.784 690.621C571.02 718.174 577.376 794.472 577.376 794.472C577.376 794.472 577.376 938.592 600.678 940.711C623.98 942.831 640.927 944.95 643.045 936.473C645.163 927.995 632.453 923.756 638.808 919.517C645.163 915.279 647.282 900.443 638.808 883.487C630.335 866.532 638.808 694.86 638.808 694.86L679.057 802.95C679.057 802.95 683.294 891.965 687.531 904.682C691.767 917.398 683.294 940.712 698.123 942.831C712.951 944.95 729.898 932.234 738.372 927.995C746.845 923.756 725.661 923.756 729.898 921.637C734.135 919.517 746.845 913.159 742.608 911.04C738.372 908.92 734.135 807.189 734.135 807.189C734.135 807.189 722.484 589.949 707.655 581.472C692.827 572.994 683.294 587.596 683.294 587.596L566.784 610.084Z" fill="#201F30"/>
<path d="M604.914 932.234V949.189C604.914 949.189 585.848 995.278 604.914 995.278C623.979 995.278 638.808 1000.05 638.808 993.696V936.472L604.914 932.234Z" fill="#201F30"/>
<path d="M724.411 930.558L727.194 947.284C727.194 947.284 753.566 989.623 734.759 992.749C715.952 995.875 702.108 1003.02 701.065 996.746L691.672 940.297L724.411 930.558Z" fill="#201F30"/>
<path d="M603.088 344.208C623.386 349.816 644.394 337.9 650.011 317.592C655.627 297.285 643.726 276.276 623.429 270.667C603.131 265.059 582.123 276.975 576.506 297.282C570.89 317.59 582.791 338.599 603.088 344.208Z" fill="#FFD6BA"/>
<path d="M609.152 379.068C609.152 379.068 619.743 410.859 636.69 404.501L653.637 398.143L683.294 601.606C683.294 601.606 659.992 635.516 626.099 614.322C592.205 593.128 609.152 379.068 609.152 379.068Z" fill="white"/>
<path d="M638.809 372.709L648.341 352.575C648.341 352.575 704.478 379.068 712.951 387.545C721.425 396.023 721.425 408.739 721.425 408.739L706.596 461.724C706.596 461.724 710.833 578.292 710.833 582.531C710.833 586.77 725.662 610.083 715.07 601.605C704.478 593.128 702.36 584.65 693.886 597.367C685.413 610.083 666.347 624.919 666.347 624.919L638.809 372.709Z" fill="#F20E0F"/>
<path d="M712.951 525.307L706.596 584.651C706.596 584.651 668.466 618.561 676.939 620.681C685.413 622.8 689.649 614.322 689.649 614.322C689.649 614.322 704.478 629.158 712.951 620.681C721.425 612.203 742.609 531.665 742.609 531.665L712.951 525.307Z" fill="#FFD6BA"/>
<path d="M628.416 255.687C620.349 253.145 611.67 250.591 603.585 253.086C599.815 254.417 596.292 256.366 593.16 258.854C584.129 265.467 575.403 274.517 574.985 285.703L578.183 285.374C577.407 288.176 576.019 290.772 574.118 292.972C574.852 291.902 575.684 294.19 574.989 295.285L568.923 304.843C574.68 304.37 580.109 310.048 579.38 315.781C583.096 303.759 588.197 290.206 599.989 285.824C605.936 283.614 612.511 284.255 618.814 284.952C624.63 285.595 630.703 286.355 635.529 289.662C640.354 292.969 643.386 299.681 640.653 304.858C643.347 304.69 645.623 307.164 646.201 309.801C646.78 312.437 646.094 315.169 645.411 317.78C647.519 320.358 651.52 317.502 653.426 314.769C657.899 308.354 662.221 301.403 662.921 293.614C663.622 285.825 659.542 277.069 652.015 274.962C653.207 274.21 654.06 273.023 654.394 271.654L648.33 269.413C649.968 269.625 651.629 269.261 653.029 268.383C649.777 270.439 632.408 256.946 628.416 255.687Z" fill="#201F30"/>
<path d="M619.743 366.351C619.743 366.351 602.499 349.444 596.292 350.48C590.086 351.515 581.613 366.351 581.613 366.351C581.613 366.351 530.772 383.307 532.89 400.262C535.009 417.217 558.311 499.874 558.311 499.874C558.311 499.874 577.376 599.486 560.429 610.083C543.482 620.68 640.927 648.233 643.045 635.516C645.164 622.8 649.401 495.635 643.045 476.56C636.69 457.486 619.743 366.351 619.743 366.351Z" fill="#F20E0F"/>
<path d="M693.887 400.262H720.08C720.08 400.262 738.372 480.799 740.491 489.277C742.609 497.755 746.846 538.023 744.727 538.023C742.609 538.023 700.242 529.546 700.242 535.904L693.887 400.262Z" fill="#F20E0F"/>
<path d="M692.999 613.19H592.723C582.937 568.153 582.12 524.639 592.723 483.065H692.999C676.817 523.891 675.805 567.107 692.999 613.19Z" fill="#F36A6B"/>
<path d="M551.955 551.127L581.612 563.844C581.612 563.844 638.808 572.321 638.808 549.008C638.808 525.694 581.612 538.411 581.612 538.411L562.546 532.312L551.955 551.127Z" fill="#FFD6BA"/>
<path d="M558.31 387.545L532.889 393.904L513.824 506.232C513.824 506.232 507.469 535.904 518.061 538.023C528.653 540.143 558.31 557.098 558.31 557.098C558.31 557.098 562.546 525.307 571.02 525.307L549.836 508.352L562.547 434.172L558.31 387.545Z" fill="#F20E0F"/>
<path d="M198.814 604.574H59.8167V606.561H198.814V604.574Z" fill="#F36A6B"/>
<path d="M99.5307 586.694H97.545V605.071H99.5307V586.694Z" fill="#F36A6B"/>
<path d="M160.093 586.694H158.108V605.071H160.093V586.694Z" fill="#F36A6B"/>
<path d="M247.463 310.551H108.466V312.537H247.463V310.551Z" fill="#F36A6B"/>
<path d="M209.735 312.041H207.75V330.417H209.735V312.041Z" fill="#F36A6B"/>
<path d="M149.173 312.041H147.187V330.417H149.173V312.041Z" fill="#F36A6B"/>
<path d="M414.449 506.235H275.452V508.222H414.449V506.235Z" fill="#F36A6B"/>
<path d="M376.721 507.725H374.735V526.102H376.721V507.725Z" fill="#F36A6B"/>
<path d="M316.158 507.725H314.173V526.102H316.158V507.725Z" fill="#F36A6B"/>
<path d="M151.158 505.242H12.1613V507.228H151.158V505.242Z" fill="#F36A6B"/>
<path d="M113.431 506.732H111.445V525.108H113.431V506.732Z" fill="#F36A6B"/>
<path d="M52.8666 506.732H50.8809V525.108H52.8666V506.732Z" fill="#F36A6B"/>
<path d="M317.954 405.909H178.957V407.896H317.954V405.909Z" fill="#F36A6B"/>
<path d="M218.671 388.03H216.685V406.406H218.671V388.03Z" fill="#F36A6B"/>
<path d="M279.234 388.03H277.248V406.406H279.234V388.03Z" fill="#F36A6B"/>
</svg>
