<svg width="212" height="40" viewBox="0 0 212 40" fill="none" xmlns="http://www.w3.org/2000/svg">
<path d="M202.961 29.9147C200.834 29.9147 199.109 31.7001 199.109 33.9025C199.109 36.1049 200.834 37.8903 202.961 37.8903C205.088 37.8903 206.813 36.1049 206.813 33.9025C206.813 31.7001 205.088 29.9147 202.961 29.9147ZM202.961 29.9147H188.121C187.233 29.9147 186.788 29.9147 186.423 29.7511C186.1 29.6069 185.82 29.3746 185.617 29.0783C185.388 28.7463 185.296 28.3023 185.114 27.4234L180.374 4.52159C180.188 3.62231 180.094 3.17317 179.863 2.83729C179.659 2.54105 179.379 2.30788 179.057 2.1636C178.691 2 178.249 2 177.361 2H176M181.777 7.98172H206.569C207.958 7.98172 208.653 7.98172 209.119 8.28152C209.528 8.54413 209.827 8.95599 209.958 9.43529C210.106 9.98248 209.915 10.6734 209.53 12.0562L206.863 21.6269C206.633 22.4537 206.518 22.8663 206.284 23.1731C206.078 23.4439 205.806 23.6558 205.497 23.786C205.149 23.933 204.735 23.933 203.909 23.933H185.11M185.629 37.8903C183.502 37.8903 181.777 36.1049 181.777 33.9025C181.777 31.7001 183.502 29.9147 185.629 29.9147C187.756 29.9147 189.481 31.7001 189.481 33.9025C189.481 36.1049 187.756 37.8903 185.629 37.8903Z" stroke="#F20E0F" stroke-width="3" stroke-linecap="round" stroke-linejoin="round"/>
<path d="M29.393 9.418V34H25.364V18.122C25.364 17.4873 25.398 16.8017 25.466 16.065L18.037 30.022C17.6857 30.6907 17.1473 31.025 16.422 31.025H15.776C15.0507 31.025 14.5123 30.6907 14.161 30.022L6.647 16.014C6.681 16.388 6.70933 16.7563 6.732 17.119C6.75467 17.4817 6.766 17.816 6.766 18.122V34H2.737V9.418H6.188C6.392 9.418 6.56767 9.42367 6.715 9.435C6.86233 9.44633 6.99267 9.47466 7.106 9.52C7.23067 9.56533 7.33833 9.639 7.429 9.741C7.531 9.843 7.62733 9.979 7.718 10.149L15.079 23.8C15.2717 24.1627 15.4473 24.5367 15.606 24.922C15.776 25.3073 15.9403 25.704 16.099 26.112C16.2577 25.6927 16.422 25.2903 16.592 24.905C16.762 24.5083 16.9433 24.1287 17.136 23.766L24.395 10.149C24.4857 9.979 24.582 9.843 24.684 9.741C24.786 9.639 24.8937 9.56533 25.007 9.52C25.1317 9.47466 25.2677 9.44633 25.415 9.435C25.5623 9.42367 25.738 9.418 25.942 9.418H29.393ZM42.997 26.554C41.7843 26.6107 40.7643 26.7183 39.937 26.877C39.1097 27.0243 38.4467 27.217 37.948 27.455C37.4493 27.693 37.0923 27.9707 36.877 28.288C36.6617 28.6053 36.554 28.951 36.554 29.325C36.554 30.0617 36.7693 30.5887 37.2 30.906C37.642 31.2233 38.2143 31.382 38.917 31.382C39.7783 31.382 40.5207 31.229 41.144 30.923C41.7787 30.6057 42.3963 30.1297 42.997 29.495V26.554ZM33.375 18.989C35.381 17.153 37.795 16.235 40.617 16.235C41.637 16.235 42.5493 16.405 43.354 16.745C44.1587 17.0737 44.8387 17.5383 45.394 18.139C45.9493 18.7283 46.3687 19.4367 46.652 20.264C46.9467 21.0913 47.094 21.998 47.094 22.984V34H45.19C44.7933 34 44.4873 33.9433 44.272 33.83C44.0567 33.7053 43.8867 33.4617 43.762 33.099L43.388 31.841C42.946 32.2377 42.5153 32.589 42.096 32.895C41.6767 33.1897 41.2403 33.439 40.787 33.643C40.3337 33.847 39.8463 34 39.325 34.102C38.815 34.2153 38.2483 34.272 37.625 34.272C36.8883 34.272 36.2083 34.1757 35.585 33.983C34.9617 33.779 34.4233 33.4787 33.97 33.082C33.5167 32.6853 33.1653 32.1923 32.916 31.603C32.6667 31.0137 32.542 30.328 32.542 29.546C32.542 29.104 32.6157 28.6677 32.763 28.237C32.9103 27.795 33.1483 27.3757 33.477 26.979C33.817 26.5823 34.2533 26.2083 34.786 25.857C35.3187 25.5057 35.9703 25.1997 36.741 24.939C37.523 24.6783 38.4297 24.4687 39.461 24.31C40.4923 24.14 41.671 24.038 42.997 24.004V22.984C42.997 21.8167 42.7477 20.9553 42.249 20.4C41.7503 19.8333 41.0307 19.55 40.09 19.55C39.41 19.55 38.8433 19.6293 38.39 19.788C37.948 19.9467 37.557 20.128 37.217 20.332C36.877 20.5247 36.5653 20.7003 36.282 20.859C36.01 21.0177 35.704 21.097 35.364 21.097C35.0693 21.097 34.82 21.0233 34.616 20.876C34.412 20.7173 34.2477 20.536 34.123 20.332L33.375 18.989ZM55.0096 19.584C55.5536 18.5413 56.1996 17.7253 56.9476 17.136C57.6956 16.5353 58.5796 16.235 59.5996 16.235C60.4043 16.235 61.0503 16.4107 61.5376 16.762L61.2656 19.907C61.2089 20.111 61.1239 20.2583 61.0106 20.349C60.9086 20.4283 60.7669 20.468 60.5856 20.468C60.4156 20.468 60.1606 20.4397 59.8206 20.383C59.4919 20.3263 59.1689 20.298 58.8516 20.298C58.3869 20.298 57.9733 20.366 57.6106 20.502C57.2479 20.638 56.9193 20.8363 56.6246 21.097C56.3413 21.3463 56.0863 21.6523 55.8596 22.015C55.6443 22.3777 55.4403 22.7913 55.2476 23.256V34H51.0486V16.558H53.5136C53.9443 16.558 54.2446 16.6373 54.4146 16.796C54.5846 16.9433 54.6979 17.2153 54.7546 17.612L55.0096 19.584ZM67.9312 8.738V23.205H68.7132C68.9965 23.205 69.2175 23.171 69.3762 23.103C69.5462 23.0237 69.7162 22.8707 69.8862 22.644L74.2212 17.289C74.4025 17.051 74.6009 16.8697 74.8162 16.745C75.0429 16.6203 75.3319 16.558 75.6832 16.558H79.5252L74.1022 23.035C73.7169 23.545 73.2975 23.936 72.8442 24.208C73.0822 24.378 73.2919 24.5763 73.4732 24.803C73.6659 25.0297 73.8472 25.2733 74.0172 25.534L79.8312 34H76.0402C75.7115 34 75.4282 33.949 75.1902 33.847C74.9522 33.7337 74.7539 33.5353 74.5952 33.252L70.1412 26.639C69.9825 26.3783 69.8182 26.2083 69.6482 26.129C69.4782 26.0497 69.2232 26.01 68.8832 26.01H67.9312V34H63.7322V8.738H67.9312ZM92.2348 23.273C92.2348 22.729 92.1555 22.219 91.9968 21.743C91.8495 21.2557 91.6228 20.8307 91.3168 20.468C91.0108 20.1053 90.6198 19.822 90.1438 19.618C89.6792 19.4027 89.1352 19.295 88.5118 19.295C87.2992 19.295 86.3415 19.6407 85.6388 20.332C84.9475 21.0233 84.5055 22.0037 84.3128 23.273H92.2348ZM84.2278 25.806C84.2958 26.7013 84.4545 27.4777 84.7038 28.135C84.9532 28.781 85.2818 29.3193 85.6898 29.75C86.0978 30.1693 86.5795 30.4867 87.1348 30.702C87.7015 30.906 88.3248 31.008 89.0048 31.008C89.6848 31.008 90.2685 30.9287 90.7558 30.77C91.2545 30.6113 91.6852 30.4357 92.0478 30.243C92.4218 30.0503 92.7448 29.8747 93.0168 29.716C93.3002 29.5573 93.5722 29.478 93.8328 29.478C94.1842 29.478 94.4448 29.6083 94.6148 29.869L95.8218 31.399C95.3572 31.943 94.8358 32.402 94.2578 32.776C93.6798 33.1387 93.0735 33.4333 92.4388 33.66C91.8155 33.8753 91.1752 34.0283 90.5178 34.119C89.8718 34.2097 89.2428 34.255 88.6308 34.255C87.4182 34.255 86.2905 34.0567 85.2478 33.66C84.2052 33.252 83.2985 32.657 82.5278 31.875C81.7572 31.0817 81.1508 30.107 80.7088 28.951C80.2668 27.7837 80.0458 26.435 80.0458 24.905C80.0458 23.715 80.2385 22.5987 80.6238 21.556C81.0092 20.502 81.5588 19.5897 82.2728 18.819C82.9982 18.037 83.8765 17.4193 84.9078 16.966C85.9505 16.5127 87.1235 16.286 88.4268 16.286C89.5262 16.286 90.5405 16.4617 91.4698 16.813C92.3992 17.1643 93.1982 17.68 93.8668 18.36C94.5355 19.0287 95.0568 19.856 95.4308 20.842C95.8162 21.8167 96.0088 22.933 96.0088 24.191C96.0088 24.8257 95.9408 25.2563 95.8048 25.483C95.6688 25.6983 95.4082 25.806 95.0228 25.806H84.2278ZM104.808 34.272C103.289 34.272 102.122 33.847 101.306 32.997C100.501 32.1357 100.099 30.9513 100.099 29.444V19.703H98.3139C98.0873 19.703 97.8946 19.6293 97.7359 19.482C97.5773 19.3347 97.4979 19.1137 97.4979 18.819V17.153L100.303 16.694L101.187 11.934C101.244 11.7073 101.351 11.5317 101.51 11.407C101.669 11.2823 101.873 11.22 102.122 11.22H104.298V16.711H108.956V19.703H104.298V29.155C104.298 29.699 104.428 30.124 104.689 30.43C104.961 30.736 105.329 30.889 105.794 30.889C106.055 30.889 106.27 30.8607 106.44 30.804C106.621 30.736 106.774 30.668 106.899 30.6C107.035 30.532 107.154 30.4697 107.256 30.413C107.358 30.345 107.46 30.311 107.562 30.311C107.687 30.311 107.789 30.345 107.868 30.413C107.947 30.4697 108.032 30.5603 108.123 30.685L109.381 32.725C108.769 33.235 108.066 33.6203 107.273 33.881C106.48 34.1417 105.658 34.272 104.808 34.272Z" fill="#F20E0F"/>
<path d="M133.03 9.418V34H128.44V23.256H116.897V34H112.307V9.418H116.897V19.992H128.44V9.418H133.03ZM152.538 16.558V34H149.971C149.415 34 149.064 33.745 148.917 33.235L148.628 31.841C147.914 32.5663 147.126 33.1557 146.265 33.609C145.403 34.051 144.389 34.272 143.222 34.272C142.27 34.272 141.425 34.1133 140.689 33.796C139.963 33.4673 139.351 33.0083 138.853 32.419C138.354 31.8297 137.974 31.1327 137.714 30.328C137.464 29.512 137.34 28.6167 137.34 27.642V16.558H141.539V27.642C141.539 28.7073 141.782 29.5347 142.27 30.124C142.768 30.702 143.511 30.991 144.497 30.991C145.222 30.991 145.902 30.8323 146.537 30.515C147.171 30.1863 147.772 29.7387 148.339 29.172V16.558H152.538ZM160.9 29.478C161.376 30.056 161.892 30.464 162.447 30.702C163.014 30.94 163.609 31.059 164.232 31.059C164.878 31.059 165.456 30.9457 165.966 30.719C166.487 30.481 166.929 30.1183 167.292 29.631C167.655 29.1323 167.932 28.5033 168.125 27.744C168.318 26.9733 168.414 26.0553 168.414 24.99C168.414 23.0747 168.097 21.692 167.462 20.842C166.827 19.9807 165.915 19.55 164.725 19.55C163.92 19.55 163.218 19.737 162.617 20.111C162.016 20.4737 161.444 20.9893 160.9 21.658V29.478ZM160.9 18.7C161.603 17.9633 162.379 17.3797 163.229 16.949C164.09 16.507 165.071 16.286 166.17 16.286C167.179 16.286 168.085 16.4843 168.89 16.881C169.706 17.2777 170.397 17.85 170.964 18.598C171.542 19.3347 171.984 20.23 172.29 21.284C172.596 22.338 172.749 23.5223 172.749 24.837C172.749 26.2537 172.573 27.54 172.222 28.696C171.871 29.852 171.366 30.8437 170.709 31.671C170.063 32.487 169.281 33.1217 168.363 33.575C167.445 34.0283 166.425 34.255 165.303 34.255C164.759 34.255 164.266 34.1983 163.824 34.085C163.382 33.983 162.974 33.8357 162.6 33.643C162.226 33.4503 161.88 33.218 161.563 32.946C161.257 32.6627 160.962 32.351 160.679 32.011L160.492 33.184C160.424 33.4787 160.305 33.6883 160.135 33.813C159.976 33.9377 159.755 34 159.472 34H156.701V8.738H160.9V18.7Z" fill="black"/>
</svg>
