<svg width="39" height="39" viewBox="0 0 39 39" fill="none" xmlns="http://www.w3.org/2000/svg">
<path d="M6.5 9.75L16.4249 17.2449L16.4282 17.2477C17.5303 18.0558 18.0816 18.4602 18.6855 18.6163C19.2192 18.7544 19.7803 18.7544 20.3141 18.6163C20.9185 18.46 21.4715 18.0545 22.5754 17.2449C22.5754 17.2449 28.9414 12.3597 32.5 9.75M4.875 25.6753V13.3253C4.875 11.5051 4.875 10.5944 5.22923 9.89917C5.54082 9.28764 6.03764 8.79082 6.64917 8.47923C7.34438 8.125 8.25515 8.125 10.0753 8.125H28.9253C30.7455 8.125 31.6543 8.125 32.3495 8.47923C32.961 8.79082 33.4595 9.28764 33.7711 9.89917C34.125 10.5937 34.125 11.5034 34.125 13.32V25.6808C34.125 27.4974 34.125 28.4058 33.7711 29.1003C33.4595 29.7118 32.961 30.2095 32.3495 30.5211C31.655 30.875 30.7466 30.875 28.93 30.875H10.07C8.25337 30.875 7.3437 30.875 6.64917 30.5211C6.03764 30.2095 5.54082 29.7118 5.22923 29.1003C4.875 28.4051 4.875 27.4955 4.875 25.6753Z" stroke="black" stroke-width="4" stroke-linecap="round" stroke-linejoin="round"/>
</svg>
