<svg width="28" height="28" viewBox="0 0 28 28" fill="none" xmlns="http://www.w3.org/2000/svg">
<circle cx="14" cy="14" r="14" fill="#F20E0F"/>
<g clip-path="url(#clip0_654_208)">
<path d="M6.5 7.25H7.25C7.64782 7.25 8.02936 7.40804 8.31066 7.68934C8.59196 7.97064 8.75 8.35218 8.75 8.75V16.25C8.75 16.6478 8.90804 17.0294 9.18934 17.3107C9.47064 17.592 9.85218 17.75 10.25 17.75H21.5" stroke="white" stroke-width="1.5" stroke-linecap="round" stroke-linejoin="round"/>
<path d="M11.75 11.75C11.75 11.1533 11.9871 10.581 12.409 10.159C12.831 9.73705 13.4033 9.5 14 9.5H17C17.5967 9.5 18.169 9.73705 18.591 10.159C19.0129 10.581 19.25 11.1533 19.25 11.75V13.25C19.25 13.8467 19.0129 14.419 18.591 14.841C18.169 15.2629 17.5967 15.5 17 15.5H14C13.4033 15.5 12.831 15.2629 12.409 14.841C11.9871 14.419 11.75 13.8467 11.75 13.25V11.75Z" stroke="white" stroke-width="1.5" stroke-linecap="round" stroke-linejoin="round"/>
<path d="M10.25 19.25C10.25 19.6478 10.408 20.0294 10.6893 20.3107C10.9706 20.592 11.3522 20.75 11.75 20.75C12.1478 20.75 12.5294 20.592 12.8107 20.3107C13.092 20.0294 13.25 19.6478 13.25 19.25C13.25 18.8522 13.092 18.4706 12.8107 18.1893C12.5294 17.908 12.1478 17.75 11.75 17.75C11.3522 17.75 10.9706 17.908 10.6893 18.1893C10.408 18.4706 10.25 18.8522 10.25 19.25Z" stroke="white" stroke-width="1.5" stroke-linecap="round" stroke-linejoin="round"/>
<path d="M17 19.25C17 19.6478 17.158 20.0294 17.4393 20.3107C17.7206 20.592 18.1022 20.75 18.5 20.75C18.8978 20.75 19.2794 20.592 19.5607 20.3107C19.842 20.0294 20 19.6478 20 19.25C20 18.8522 19.842 18.4706 19.5607 18.1893C19.2794 17.908 18.8978 17.75 18.5 17.75C18.1022 17.75 17.7206 17.908 17.4393 18.1893C17.158 18.4706 17 18.8522 17 19.25Z" stroke="white" stroke-width="1.5" stroke-linecap="round" stroke-linejoin="round"/>
</g>
<defs>
<clipPath id="clip0_654_208">
<rect width="18" height="18" fill="white" transform="translate(5 5)"/>
</clipPath>
</defs>
</svg>
