<svg width="82" height="84" viewBox="0 0 82 84" fill="none" xmlns="http://www.w3.org/2000/svg">
<ellipse cx="40.9487" cy="42.2122" rx="40.5903" ry="41.4982" fill="#F20E0F"/>
<path d="M52.4679 42.2122V52.0259C52.4679 55.2779 47.3107 57.9142 40.949 57.9142C34.5873 57.9142 29.4302 55.2779 29.4302 52.0259V42.2122M52.4679 42.2122V32.3984M52.4679 42.2122C52.4679 45.4642 47.3107 48.1004 40.949 48.1004C34.5873 48.1004 29.4302 45.4642 29.4302 42.2122M52.4679 32.3984C52.4679 29.1464 47.3107 26.5101 40.949 26.5101C34.5873 26.5101 29.4302 29.1464 29.4302 32.3984M52.4679 32.3984C52.4679 35.6504 47.3107 38.2867 40.949 38.2867C34.5873 38.2867 29.4302 35.6504 29.4302 32.3984M29.4302 42.2122V32.3984" stroke="white" stroke-width="4" stroke-linecap="round" stroke-linejoin="round"/>
</svg>
