<svg width="53" height="53" viewBox="0 0 53 53" fill="none" xmlns="http://www.w3.org/2000/svg">
<path d="M26.5 9.0018e-06C21.2588 9.0018e-06 16.1353 1.55421 11.7774 4.46606C7.4195 7.37792 4.02292 11.5167 2.0172 16.3589C0.011482 21.2011 -0.513306 26.5294 0.509202 31.6699C1.53171 36.8104 4.05559 41.5322 7.76168 45.2383C11.4678 48.9444 16.1896 51.4683 21.3301 52.4908C26.4706 53.5133 31.7989 52.9885 36.6411 50.9828C41.4833 48.9771 45.6221 45.5805 48.5339 41.2226C51.4458 36.8647 53 31.7412 53 26.5C53.0029 23.0192 52.3194 19.5719 50.9886 16.3555C49.6579 13.1391 47.7061 10.2166 45.2447 7.75528C42.7834 5.29395 39.8609 3.34209 36.6445 2.01136C33.4281 0.680623 29.9808 -0.00286112 26.5 9.0018e-06ZM26.5 46.7647C22.492 46.7647 18.5741 45.5762 15.2415 43.3495C11.909 41.1228 9.31165 37.9579 7.77786 34.255C6.24407 30.5521 5.84277 26.4775 6.62468 22.5466C7.4066 18.6156 9.33663 15.0048 12.1707 12.1707C15.0048 9.33663 18.6156 7.4066 22.5466 6.62468C26.4775 5.84276 30.5521 6.24407 34.255 7.77786C37.9579 9.31165 41.1228 11.909 43.3495 15.2415C45.5762 18.574 46.7647 22.492 46.7647 26.5C46.77 29.1627 46.2495 31.8002 45.233 34.2613C44.2165 36.7223 42.724 38.9584 40.8412 40.8412C38.9584 42.724 36.7223 44.2165 34.2613 45.233C31.8002 46.2495 29.1627 46.77 26.5 46.7647ZM31.6441 13.25C31.3626 12.9546 31.024 12.7194 30.6488 12.5587C30.2737 12.398 29.8699 12.3152 29.4618 12.3152C29.0537 12.3152 28.6498 12.398 28.2747 12.5587C27.8996 12.7194 27.561 12.9546 27.2794 13.25L18.3941 22.1353C17.8019 22.7137 17.3314 23.4048 17.0101 24.1677C16.6888 24.9306 16.5233 25.7501 16.5233 26.5779C16.5233 27.4058 16.6888 28.2252 17.0101 28.9882C17.3314 29.7511 17.8019 30.4421 18.3941 31.0206L27.2794 39.9059C27.8602 40.475 28.6421 40.792 29.4553 40.7879C30.2685 40.7838 31.0472 40.459 31.6222 39.8839C32.1972 39.3089 32.522 38.5302 32.5261 37.7171C32.5303 36.9039 32.2133 36.122 31.6441 35.5412L22.9147 26.5L31.8 17.6147C32.8912 16.5235 32.8912 14.4971 31.6441 13.25Z" fill="white"/>
</svg>
