<svg width="52" height="52" viewBox="0 0 52 52" fill="none" xmlns="http://www.w3.org/2000/svg">
<g clip-path="url(#clip0_653_93)">
<path d="M10.834 36.8333C10.834 37.9826 11.2905 39.0848 12.1032 39.8975C12.9158 40.7101 14.018 41.1667 15.1673 41.1667C16.3166 41.1667 17.4188 40.7101 18.2314 39.8975C19.0441 39.0848 19.5007 37.9826 19.5007 36.8333C19.5007 35.6841 19.0441 34.5819 18.2314 33.7692C17.4188 32.9565 16.3166 32.5 15.1673 32.5C14.018 32.5 12.9158 32.9565 12.1032 33.7692C11.2905 34.5819 10.834 35.6841 10.834 36.8333Z" stroke="#676161" stroke-width="2" stroke-linecap="round" stroke-linejoin="round"/>
<path d="M32.5 36.8333C32.5 37.9826 32.9565 39.0848 33.7692 39.8975C34.5819 40.7101 35.6841 41.1667 36.8333 41.1667C37.9826 41.1667 39.0848 40.7101 39.8975 39.8975C40.7101 39.0848 41.1667 37.9826 41.1667 36.8333C41.1667 35.6841 40.7101 34.5819 39.8975 33.7692C39.0848 32.9565 37.9826 32.5 36.8333 32.5C35.6841 32.5 34.5819 32.9565 33.7692 33.7692C32.9565 34.5819 32.5 35.6841 32.5 36.8333Z" stroke="#676161" stroke-width="2" stroke-linecap="round" stroke-linejoin="round"/>
<path d="M10.834 36.8334H6.50065V28.1667M4.33398 10.8334H28.1673V36.8334M19.5006 36.8334H32.5006ZM41.1673 36.8334H45.5006V23.8334H28.1673M28.1673 13H39.0006L45.5006 23.8334" fill="#DBDBDB"/>
<path d="M10.834 36.8334H6.50065V28.1667M4.33398 10.8334H28.1673V36.8334M19.5006 36.8334H32.5006M41.1673 36.8334H45.5006V23.8334M45.5006 23.8334H28.1673M45.5006 23.8334L39.0006 13H28.1673" stroke="#676161" stroke-width="2" stroke-linecap="round" stroke-linejoin="round"/>
<path d="M6.5 19.5H15.1667" stroke="#676161" stroke-width="2" stroke-linecap="round" stroke-linejoin="round"/>
</g>
<defs>
<clipPath id="clip0_653_93">
<rect width="52" height="52" fill="white"/>
</clipPath>
</defs>
</svg>
